<svg width="24" height="24" viewBox="0 0 24 24" fill="none" xmlns="http://www.w3.org/2000/svg">
<path fill-rule="evenodd" clip-rule="evenodd" d="M4.3632 19.6368C2.33781 17.6114 1.19995 14.8644 1.19995 12C1.19995 9.13567 2.33781 6.38865 4.3632 4.36326C6.38859 2.33787 9.13561 1.20001 12 1.20001C14.8643 1.20001 17.6113 2.33787 19.6367 4.36326C21.6621 6.38865 22.8 9.13567 22.8 12C22.8 14.8644 21.6621 17.6114 19.6367 19.6368C17.6113 21.6622 14.8643 22.8 12 22.8C9.13561 22.8 6.38859 21.6622 4.3632 19.6368ZM7.43998 8.18998C7.43998 8.18998 9.31997 7.03997 12 7.03997C14.68 7.03997 16.56 8.18998 16.56 8.18998C15.53 7.26999 13.73 6.73997 13.73 6.73997L13.9 6.56998C15.59 6.59998 17.12 7.76998 17.12 7.76998C18.84 11.36 18.73 14.46 18.73 14.46C17.33 16.27 15.25 16.14 15.25 16.14L14.54 15.24C15.79 14.97 16.58 13.86 16.58 13.86C16.58 13.86 14.7 15.14 12 15.14C9.29998 15.14 7.41998 13.86 7.41998 13.86C7.41998 13.86 8.20997 14.97 9.45998 15.24L8.74997 16.14C8.74997 16.14 6.66998 16.27 5.26997 14.46C5.26997 14.46 5.15998 11.36 6.87998 7.76998C6.87998 7.76998 8.40999 6.59998 10.1 6.56998L10.27 6.73997C10.27 6.73997 8.46999 7.26999 7.43998 8.18998ZM11.1 12.1C11.11 11.4 10.58 10.83 9.92998 10.83C9.27998 10.83 8.76999 11.4 8.76999 12.1C8.76999 12.79 9.28997 13.37 9.92998 13.37C10.58 13.37 11.1 12.79 11.1 12.1ZM15.27 12.1C15.27 11.4 14.75 10.83 14.1 10.83C13.45 10.83 12.94 11.4 12.94 12.1C12.94 12.79 13.46 13.37 14.1 13.37C14.75 13.37 15.27 12.79 15.27 12.1Z" fill="#4B72ED"/>
</svg>
