<svg width="24" height="24" viewBox="0 0 24 24" fill="none" xmlns="http://www.w3.org/2000/svg">
<path d="M12.3012 1.78827C6.33352 1.78586 1.5 6.61696 1.5 12.5798C1.5 17.2951 4.52366 21.3033 8.73459 22.7753C9.30168 22.9177 9.2148 22.5147 9.2148 22.2396V20.3694C5.94018 20.7531 5.80745 18.5861 5.58786 18.2242C5.14384 17.4664 4.09412 17.2734 4.40783 16.9114C5.15349 16.5277 5.91363 17.0079 6.79443 18.3086C7.43149 19.2521 8.67426 19.0929 9.30409 18.936C9.44164 18.3689 9.73604 17.8622 10.1414 17.4688C6.74858 16.8607 5.33448 14.7903 5.33448 12.3289C5.33448 11.1344 5.72782 10.0364 6.50002 9.15075C6.00774 7.69081 6.54587 6.4408 6.61827 6.25499C8.0203 6.1295 9.47784 7.25885 9.59125 7.34814C10.3876 7.13337 11.2973 7.01995 12.3157 7.01995C13.3389 7.01995 14.251 7.1382 15.0546 7.35538C15.3273 7.14785 16.6786 6.17777 17.9817 6.29601C18.0517 6.48182 18.5778 7.70287 18.1145 9.14351C18.8963 10.0315 19.2945 11.1392 19.2945 12.3361C19.2945 14.8023 17.8707 16.8752 14.4682 17.4737C15.0353 18.0335 15.3876 18.8105 15.3876 19.6696V22.3844C15.4069 22.6016 15.3876 22.8164 15.7496 22.8164C20.0233 21.3757 23.1 17.3385 23.1 12.5822C23.1 6.61696 18.2641 1.78827 12.3012 1.78827Z" fill="#4A82B6"/>
</svg>
