<svg width="24" height="24" viewBox="0 0 24 24" fill="none" xmlns="http://www.w3.org/2000/svg">
<path fill-rule="evenodd" clip-rule="evenodd" d="M21.3707 11.5268C21.3705 11.6844 21.3703 11.8421 21.3703 12C21.3703 12.1766 21.3706 12.353 21.3708 12.5292C21.3725 13.6439 21.3741 14.7521 21.3094 15.8672C21.2367 17.3672 20.8969 18.6961 19.7976 19.7953C18.7008 20.8922 17.3695 21.2344 15.8695 21.307C14.7357 21.3708 13.6091 21.3696 12.4755 21.3683C12.3179 21.3682 12.1602 21.368 12.0023 21.368C11.8448 21.368 11.6873 21.3682 11.53 21.3683C10.3979 21.3696 9.27104 21.3708 8.13515 21.307C6.63515 21.2344 5.30624 20.8945 4.20702 19.7953C3.11015 18.6985 2.76796 17.3672 2.6953 15.8672C2.63151 14.7334 2.63276 13.6049 2.63402 12.4724C2.63419 12.315 2.63436 12.1576 2.63436 12C2.63436 11.8424 2.63419 11.685 2.63402 11.5276C2.63276 10.3955 2.63151 9.2687 2.6953 8.13283C2.76796 6.63283 3.1078 5.30392 4.20702 4.2047C5.3039 3.10783 6.63515 2.76564 8.13515 2.69298C9.26893 2.62919 10.3955 2.63044 11.5291 2.6317C11.6867 2.63187 11.8444 2.63204 12.0023 2.63204C12.1599 2.63204 12.3174 2.63187 12.4747 2.6317C13.6068 2.63044 14.7336 2.62919 15.8695 2.69298C17.3695 2.76564 18.6984 3.10548 19.7976 4.2047C20.8945 5.30158 21.2367 6.63283 21.3094 8.13283C21.3732 9.26661 21.3719 10.3932 21.3707 11.5268ZM7.19296 12C7.19296 14.6602 9.33983 16.807 12 16.807C14.6601 16.807 16.807 14.6602 16.807 12C16.807 9.33986 14.6601 7.19298 12 7.19298C9.33983 7.19298 7.19296 9.33986 7.19296 12ZM15.8812 6.99611C15.8812 7.6172 16.3828 8.11876 17.0039 8.11876C17.625 8.11876 18.1242 7.61954 18.1266 6.99611C18.1266 6.37501 17.625 5.87345 17.0039 5.87345C16.3828 5.87345 15.8812 6.37501 15.8812 6.99611ZM8.87581 12C8.87581 10.2797 10.2797 8.87579 12 8.87579C13.7203 8.87579 15.1242 10.2797 15.1242 12C15.1242 13.7203 13.7203 15.1242 12 15.1242C10.2797 15.1242 8.87581 13.7203 8.87581 12Z" fill="url(#paint0_linear_528_1302)"/>
<defs>
<linearGradient id="paint0_linear_528_1302" x1="19.8" y1="4.20001" x2="4.20002" y2="19.8" gradientUnits="userSpaceOnUse">
<stop stop-color="#854CC3"/>
<stop offset="0.53794" stop-color="#EC3529"/>
<stop offset="1" stop-color="#FDDC56"/>
</linearGradient>
</defs>
</svg>
