<svg width="24" height="24" viewBox="0 0 24 24" fill="none" xmlns="http://www.w3.org/2000/svg">
<path d="M9.024 16.5555V9.5325H6.6885V16.5563H9.02325L9.024 16.5555ZM7.85625 8.5725C8.67 8.5725 9.17775 8.0325 9.17775 7.35825C9.16275 6.66975 8.67 6.1455 7.87275 6.1455C7.0725 6.1455 6.55125 6.6705 6.55125 7.35825C6.55125 8.03325 7.05825 8.57325 7.842 8.57325L7.85625 8.5725ZM17.4427 16.5555V12.5287C17.4427 10.371 16.2907 9.36675 14.7555 9.36675C13.515 9.36675 12.96 10.0493 12.651 10.527V9.531H10.3162C10.347 10.191 10.3162 16.5555 10.3162 16.5555H12.651V12.633C12.651 12.423 12.666 12.213 12.7275 12.0645C12.8955 11.6445 13.2802 11.2102 13.9245 11.2102C14.7697 11.2102 15.1095 11.8537 15.1095 12.798V16.5563H17.4435L17.4427 16.5555ZM12 1.5C17.799 1.5 22.5 6.20025 22.5 12C22.5 17.799 17.799 22.5 12 22.5C6.20025 22.5 1.5 17.799 1.5 12C1.5 6.20025 6.20025 1.5 12 1.5Z" fill="#3676CF"/>
</svg>
