<svg width="24" height="24" viewBox="0 0 24 24" fill="none" xmlns="http://www.w3.org/2000/svg">
<path d="M12.0007 1.20041C6.03578 1.20041 1.19995 6.03557 1.19995 11.999C1.19995 16.4223 3.85882 20.2211 7.665 21.8913C7.63278 21.1366 7.65794 20.2323 7.85126 19.4121C8.06004 18.5348 9.2424 13.5263 9.2424 13.5263C9.2424 13.5263 8.89777 12.8368 8.89777 11.8183C8.89777 10.2175 9.82515 9.02249 10.9794 9.02249C11.9629 9.02249 12.4363 9.76077 12.4363 10.6437C12.4363 11.6306 11.8074 13.1085 11.4838 14.4761C11.2134 15.622 12.0581 16.5567 13.1872 16.5567C15.2339 16.5567 16.6124 13.9276 16.6124 10.8146C16.6124 8.44814 15.0181 6.67638 12.1184 6.67638C8.84169 6.67638 6.80201 9.11915 6.80201 11.8477C6.80201 12.7891 7.07802 13.452 7.51369 13.9655C7.71268 14.2022 7.74067 14.2975 7.66783 14.5678C7.61597 14.7668 7.49828 15.2451 7.44786 15.4342C7.37632 15.7082 7.15504 15.8055 6.90712 15.7053C5.39843 15.0882 4.69655 13.4373 4.69655 11.5794C4.69655 8.51114 7.28397 4.83317 12.414 4.83317C16.538 4.83317 19.253 7.816 19.253 11.019C19.253 15.2556 16.8967 18.4213 13.424 18.4213C12.2584 18.4213 11.1615 17.7901 10.7861 17.0743C10.7861 17.0743 10.1585 19.5633 10.0269 20.0431C9.79715 20.8752 9.34886 21.7084 8.93974 22.357C9.91062 22.6435 10.9374 22.7996 12.0007 22.7996C17.9656 22.7996 22.8 17.9645 22.8 11.9989C22.8 6.03557 17.9656 1.20041 12.0007 1.20041Z" fill="#E73E30"/>
</svg>
