<svg width="24" height="24" viewBox="0 0 24 24" fill="none" xmlns="http://www.w3.org/2000/svg">
<path d="M9.4082 1.51518L9.65116 2.49721C8.69534 2.7323 7.78059 3.11062 6.93794 3.61934L6.41815 2.75213C7.34678 2.19143 8.35486 1.7744 9.4082 1.51518ZM14.5918 1.51518L14.3489 2.49721C15.3047 2.7323 16.2194 3.11062 17.0621 3.61934L17.5852 2.75213C16.6556 2.19112 15.6463 1.77408 14.5918 1.51518ZM2.75302 6.41713C2.19232 7.34576 1.77529 8.35385 1.51607 9.40719L2.49823 9.65014C2.73332 8.69433 3.11164 7.77957 3.62036 6.93692L2.75302 6.41713ZM2.21306 11.999C2.21275 11.5082 2.24942 11.018 2.32277 10.5327L1.32205 10.3808C1.16006 11.4535 1.16006 12.5445 1.32205 13.6173L2.32277 13.4653C2.24942 12.98 2.21275 12.4898 2.21306 11.999ZM17.5822 21.2459L17.0624 20.3787C16.2207 20.887 15.3071 21.2653 14.3524 21.5007L14.5955 22.4827C15.6476 22.2232 16.6546 21.8062 17.5822 21.2459ZM21.7871 11.999C21.7874 12.4898 21.7507 12.98 21.6774 13.4653L22.678 13.6173C22.84 12.5445 22.84 11.4535 22.678 10.3808L21.6774 10.5327C21.7507 11.018 21.7874 11.5082 21.7871 11.999ZM22.484 14.5908L21.5019 14.3479C21.2668 15.3037 20.8885 16.2184 20.3798 17.0611L21.247 17.5842C21.808 16.6546 22.2251 15.6453 22.484 14.5908ZM13.4665 21.6779C12.4944 21.8241 11.5059 21.8241 10.5338 21.6779L10.3819 22.6785C11.4547 22.8404 12.5456 22.8404 13.6184 22.6785L13.4665 21.6779ZM19.8786 17.8053C19.2949 18.5958 18.5958 19.2943 17.8048 19.8774L18.4055 20.6925C19.2781 20.0509 20.0494 19.2818 20.6936 18.4111L19.8786 17.8053ZM17.8048 4.12084C18.5959 4.70443 19.295 5.40347 19.8786 6.19462L20.6936 5.58717C20.0515 4.71693 19.2825 3.94792 18.4123 3.3058L17.8048 4.12084ZM4.12173 6.19462C4.70531 5.40347 5.40436 4.70442 6.1955 4.12084L5.58805 3.3058C4.71786 3.94793 3.9489 4.71694 3.30682 5.58717L4.12173 6.19462ZM21.2467 6.4174L20.3795 6.93705C20.8879 7.77871 21.2662 8.69236 21.5015 9.64705L22.4837 9.4041C22.2242 8.35192 21.8071 7.34499 21.2467 6.4174ZM10.5336 2.32202C11.5056 2.17577 12.4941 2.17577 13.4662 2.32202L13.6181 1.32143C12.5454 1.15946 11.4545 1.15946 10.3818 1.32143L10.5336 2.32202ZM4.64111 20.961L2.5504 21.4488L3.03805 19.3581L2.05253 19.1268L1.56501 21.2175C1.52571 21.3853 1.52987 21.5602 1.57709 21.7259C1.62431 21.8916 1.71303 22.0425 1.83485 22.1643C1.95667 22.2861 2.10756 22.3749 2.27324 22.4221C2.43892 22.4693 2.61392 22.4735 2.78165 22.4342L4.87062 21.955L4.64111 20.961ZM2.26348 18.2242L3.249 18.4536L3.58648 17.0042C3.09456 16.1774 2.72779 15.2824 2.4981 14.3481L1.51593 14.5911C1.73606 15.4858 2.07064 16.3485 2.51141 17.1576L2.26348 18.2242ZM6.98822 20.4178L5.53884 20.7553L5.76821 21.7408L6.83468 21.4926C7.64384 21.9334 8.50646 22.268 9.40121 22.4882L9.64416 21.5062C8.71193 21.2737 7.8192 20.9047 6.99494 20.4111L6.98822 20.4178ZM11.9997 3.22553C10.432 3.22635 8.8931 3.6472 7.54311 4.44431C6.19312 5.24141 5.08136 6.38566 4.32344 7.75803C3.56553 9.13041 3.18915 10.6808 3.23345 12.2479C3.27776 13.815 3.74113 15.3417 4.57537 16.669L3.73155 20.2683L7.3308 19.4245C8.48194 20.1496 9.78591 20.5971 11.1397 20.7316C12.4935 20.8662 13.8601 20.684 15.1314 20.1997C16.4027 19.7153 17.544 18.9419 18.4651 17.9407C19.3861 16.9394 20.0618 15.7377 20.4386 14.4304C20.8154 13.1231 20.883 11.7462 20.6362 10.4083C20.3894 9.07038 19.8348 7.8082 19.0163 6.72146C18.1979 5.63472 17.1379 4.7532 15.9202 4.14652C14.7025 3.53984 13.3604 3.22463 11.9999 3.2258L11.9997 3.22553Z" fill="#5184F8"/>
</svg>
