<svg width="24" height="24" viewBox="0 0 24 24" fill="none" xmlns="http://www.w3.org/2000/svg">
<path d="M22.2857 12C22.2857 13.8661 21.8258 15.5871 20.9062 17.163C19.9866 18.7388 18.7388 19.9866 17.1629 20.9063C15.587 21.8259 13.866 22.2857 11.9999 22.2857C10.1339 22.2857 8.41289 21.8259 6.837 20.9063C5.26111 19.9866 4.01334 18.7388 3.0937 17.163C2.17405 15.5871 1.71423 13.8661 1.71423 12C1.71423 10.1339 2.17405 8.41296 3.0937 6.83706C4.01334 5.26117 5.26111 4.0134 6.837 3.09376C8.41289 2.17412 10.1339 1.71429 11.9999 1.71429C13.866 1.71429 15.587 2.17412 17.1629 3.09376C18.7388 4.0134 19.9866 5.26117 20.9062 6.83706C21.8258 8.41296 22.2857 10.1339 22.2857 12Z" fill="#FFEC3D"/>
<path d="M15.7097 12.8459L15.7122 12.8527L15.7151 12.8593C15.9855 13.456 16.3598 13.962 16.8381 14.3746C17.3188 14.7894 17.8755 15.0675 18.505 15.2085C18.5725 15.2239 18.6015 15.247 18.615 15.2636C18.6281 15.2796 18.6438 15.3104 18.6438 15.375C18.6438 15.4625 18.582 15.5897 18.2961 15.7316C18.0174 15.8699 17.5823 15.9911 16.9772 16.0882L16.8653 16.1062L16.8232 16.2114C16.7971 16.2768 16.7669 16.4089 16.7325 16.5813C16.699 16.7486 16.6569 16.8513 16.6174 16.9076C16.6036 16.9274 16.5732 16.9563 16.4732 16.9563C16.3733 16.9563 16.2139 16.9404 15.9886 16.9051C15.7577 16.8689 15.5692 16.8491 15.4286 16.8491C15.0864 16.8491 14.7584 16.9227 14.4464 17.0689C14.1497 17.208 13.896 17.3612 13.6885 17.5302C13.5161 17.6704 13.278 17.8066 12.9677 17.9359C12.6731 18.0587 12.3468 18.1214 11.9866 18.1214C11.6455 18.1214 11.3307 18.0592 11.0399 17.9363C10.7339 17.807 10.4945 17.6704 10.3165 17.5287C10.1052 17.3607 9.85003 17.2078 9.55364 17.0689C9.24162 16.9227 8.91356 16.8491 8.57143 16.8491C8.42883 16.8491 8.2389 16.8716 8.00765 16.9124C7.78144 16.9523 7.62865 16.9696 7.54018 16.9696C7.43729 16.9696 7.4 16.9407 7.38242 16.9185C7.3453 16.8715 7.30155 16.7732 7.2679 16.5965C7.23353 16.4161 7.2034 16.278 7.17677 16.2114L7.13468 16.1062L7.02278 16.0882C6.41767 15.9911 5.98256 15.8699 5.70387 15.7316C5.41796 15.5897 5.35625 15.4625 5.35625 15.375C5.35625 15.3104 5.37189 15.2796 5.38496 15.2636C5.39841 15.2471 5.42731 15.224 5.49431 15.2086C6.75876 14.9346 7.68981 14.1424 8.28412 12.8609L8.28754 12.8536L8.29035 12.8459C8.32255 12.7585 8.34796 12.6827 8.36558 12.6198C8.38179 12.5619 8.39643 12.4981 8.39643 12.442C8.39643 12.2039 8.23662 12.0341 8.03353 11.9196C7.84288 11.812 7.63432 11.7299 7.40885 11.6723L7.35938 11.8661L7.40885 11.6723C7.22431 11.6252 7.05607 11.545 6.90282 11.431C6.77038 11.3325 6.72232 11.2298 6.72232 11.1161C6.72232 11.0081 6.76401 10.925 6.8698 10.8524C6.99312 10.7679 7.12564 10.7268 7.27232 10.7268C7.32307 10.7268 7.42812 10.7486 7.60388 10.8145C7.79021 10.8844 7.95971 10.9277 8.10268 10.9277C8.19372 10.9277 8.29832 10.9204 8.37962 10.8798L8.49679 10.8212L8.4899 10.6904C8.44512 9.83944 8.42321 9.33713 8.42321 9.17411C8.42321 8.47407 8.49997 8.00404 8.63079 7.7347L8.63083 7.73472L8.63255 7.73099C8.95732 7.02589 9.40858 6.50639 9.98348 6.16145C10.5596 5.81581 11.2731 5.6375 12.1339 5.6375C12.8568 5.6375 13.4971 5.82186 14.0607 6.18784C14.6249 6.55411 15.0607 7.06629 15.3675 7.73113L15.3675 7.73115L15.3692 7.7347C15.5 8.00404 15.5768 8.47407 15.5768 9.17411C15.5768 9.33713 15.5549 9.83944 15.5101 10.6904L15.5014 10.855L15.6613 10.8949C15.7356 10.9135 15.809 10.9277 15.8705 10.9277C16.0084 10.9277 16.176 10.8798 16.36 10.8062C16.5307 10.738 16.6453 10.7134 16.7143 10.7134C16.8484 10.7134 16.9818 10.7546 17.1179 10.8465C17.2392 10.9284 17.2777 11.0118 17.2777 11.1027C17.2777 11.2286 17.2267 11.3347 17.0972 11.431C16.9439 11.545 16.7757 11.6252 16.5911 11.6723C16.3657 11.7299 16.1571 11.812 15.9665 11.9196C15.7634 12.0341 15.6036 12.2039 15.6036 12.442C15.6036 12.4981 15.6182 12.5619 15.6344 12.6198C15.652 12.6827 15.6775 12.7585 15.7097 12.8459Z" fill="white" stroke="black" stroke-width="0.4"/>
</svg>
