<svg width="24" height="24" viewBox="0 0 24 24" fill="none" xmlns="http://www.w3.org/2000/svg">
<path fill-rule="evenodd" clip-rule="evenodd" d="M12 22.8C17.9646 22.8 22.8 17.9647 22.8 12C22.8 6.03534 17.9646 1.20001 12 1.20001C6.03528 1.20001 1.19995 6.03534 1.19995 12C1.19995 17.9647 6.03528 22.8 12 22.8ZM17.246 7.87601L15.4348 16.4142L15.4356 16.4134C15.2999 17.0174 14.9427 17.1649 14.4373 16.8818L11.6774 14.849L10.3472 16.1303C10.1997 16.2786 10.0759 16.4016 9.79283 16.4016L9.98996 13.5921L15.1028 8.97207C15.3244 8.77494 15.0531 8.66375 14.7574 8.86089L8.43655 12.8406L5.71375 11.9906C5.12235 11.806 5.10974 11.3992 5.83676 11.1161L16.4819 7.01336C16.9748 6.82884 17.4061 7.12454 17.246 7.87601Z" fill="#4FA4E1"/>
</svg>
