<svg width="24" height="24" viewBox="0 0 24 24" fill="none" xmlns="http://www.w3.org/2000/svg">
<path d="M12.006 22.4896C17.7995 22.4896 22.4962 17.7929 22.4962 11.9997C22.4962 6.20684 17.7995 1.51038 12.006 1.51038C6.21249 1.51038 1.51636 6.20684 1.51636 11.9997C1.51636 17.7929 6.21249 22.4896 12.006 22.4896Z" fill="#F12D1D"/>
<path d="M14.0427 12.0051L10.6083 14.0222V9.98774L14.0427 12.0051ZM17.2511 13.8753V10.1248C17.2511 10.1248 17.2511 8.31693 15.443 8.31693H8.56838C8.56838 8.31693 6.76147 8.31693 6.76147 10.1248V13.8752C6.76147 13.8752 6.76147 15.6828 8.56838 15.6828H15.443C15.443 15.6828 17.2511 15.6828 17.2511 13.8753Z" fill="white"/>
</svg>
