<svg width="24" height="24" viewBox="0 0 24 24" fill="none" xmlns="http://www.w3.org/2000/svg">
<path d="M15.8227 7.69452C14.8055 6.79218 13.4648 6.24139 12 6.24139C11.5453 6.24139 11.0906 6.2953 10.6477 6.40311C10.807 6.61639 11.8547 8.04139 12.7992 9.77811C14.85 9.00936 15.7172 7.84218 15.8227 7.69452ZM12.9844 12.9562C9.73359 14.0883 8.56406 16.3453 8.46094 16.5562C9.43828 17.318 10.6664 17.7726 12 17.7726C12.7992 17.7726 13.5609 17.6109 14.2523 17.3156C14.1656 16.8094 13.8328 15.0469 13.0219 12.9422L12.9844 12.9562ZM14.1023 12.6773C14.857 14.7492 15.1641 16.4367 15.2227 16.7883C16.5164 15.9141 17.4375 14.5289 17.693 12.9234C17.4961 12.8625 15.9094 12.3891 14.1023 12.6773Z" fill="#ADADAD"/>
<path d="M12 1.20001C6.03584 1.20001 1.19995 6.03591 1.19995 12C1.19995 17.9641 6.03584 22.8 12 22.8C17.9641 22.8 22.8 17.9641 22.8 12C22.8 6.03591 17.9641 1.20001 12 1.20001ZM12 18.9429C8.17174 18.9429 5.05709 15.8282 5.05709 12C5.05709 8.1718 8.17174 5.05716 12 5.05716C15.8282 5.05716 18.9428 8.1718 18.9428 12C18.9428 15.8282 15.8282 18.9429 12 18.9429Z" fill="#ADADAD"/>
<path d="M13.2445 10.6359C13.3781 10.9102 13.507 11.1891 13.6265 11.4703C13.6687 11.5688 13.7109 11.6672 13.7508 11.768C15.6679 11.5266 17.5758 11.9133 17.7656 11.9531C17.7539 10.5914 17.2664 9.3422 16.4648 8.36017C16.3406 8.52657 15.375 9.76642 13.2445 10.6359ZM11.6859 10.125C10.7297 8.42579 9.70076 6.99845 9.54841 6.78986C7.93591 7.55157 6.72888 9.03751 6.35623 10.8258C6.61404 10.8305 8.9906 10.8422 11.6859 10.125ZM12.4031 12.0586C12.4781 12.0352 12.5531 12.0117 12.6304 11.9906C12.4851 11.6625 12.3281 11.3344 12.164 11.0133C9.28591 11.8758 6.48982 11.8383 6.23904 11.8336C6.23669 11.8922 6.23669 11.9508 6.23669 12.0094C6.23669 13.4906 6.79685 14.843 7.71794 15.8649C7.84685 15.6399 9.42888 13.0195 12.4031 12.0586Z" fill="#ADADAD"/>
</svg>
