<svg width="24" height="24" viewBox="0 0 24 24" fill="none" xmlns="http://www.w3.org/2000/svg">
<path d="M14.3986 15.2665C14.5272 15.3951 14.5272 15.5197 14.3986 15.6402C13.9004 16.1384 13.1008 16.3875 12 16.3875C10.8991 16.3875 10.0995 16.1384 9.60129 15.6402C9.47272 15.5197 9.47272 15.3951 9.60129 15.2665C9.6495 15.2183 9.70977 15.1942 9.78209 15.1942C9.85442 15.1942 9.91468 15.2183 9.9629 15.2665C10.3486 15.6603 11.0276 15.8572 12 15.8572C12.9642 15.8572 13.6433 15.6603 14.037 15.2665C14.0852 15.2183 14.1455 15.1942 14.2178 15.1942C14.2901 15.1942 14.3504 15.2183 14.3986 15.2665ZM10.6982 13.0848C10.6982 13.3822 10.5937 13.6353 10.3848 13.8442C10.1758 14.0531 9.92272 14.1576 9.6254 14.1576C9.32808 14.1576 9.07294 14.0531 8.86 13.8442C8.64705 13.6353 8.54058 13.3822 8.54058 13.0848C8.54058 12.7795 8.64705 12.5223 8.86 12.3134C9.07294 12.1045 9.32808 12 9.6254 12C9.92272 12 10.1758 12.1065 10.3848 12.3194C10.5937 12.5324 10.6982 12.7875 10.6982 13.0848ZM15.4593 13.0848C15.4593 13.3822 15.3529 13.6353 15.1399 13.8442C14.927 14.0531 14.6718 14.1576 14.3745 14.1576C14.0772 14.1576 13.8241 14.0531 13.6151 13.8442C13.4062 13.6353 13.3017 13.3822 13.3017 13.0848C13.3017 12.7875 13.4062 12.5324 13.6151 12.3194C13.8241 12.1065 14.0772 12 14.3745 12C14.6718 12 14.927 12.1045 15.1399 12.3134C15.3529 12.5223 15.4593 12.7795 15.4593 13.0848ZM18.4848 11.6384C18.4848 11.2447 18.3441 10.9072 18.0629 10.6259C17.7816 10.3447 17.4401 10.204 17.0383 10.204C16.6366 10.204 16.291 10.3487 16.0017 10.638C14.9571 9.91474 13.7075 9.52903 12.2531 9.48082L13.0125 6.06966L15.4232 6.61207C15.4232 6.90939 15.5276 7.16251 15.7366 7.37144C15.9455 7.58037 16.1986 7.68483 16.4959 7.68483C16.7933 7.68483 17.0484 7.57836 17.2613 7.36541C17.4743 7.15247 17.5808 6.89733 17.5808 6.60001C17.5808 6.30269 17.4743 6.04756 17.2613 5.83461C17.0484 5.62166 16.7933 5.51519 16.4959 5.51519C16.062 5.51519 15.7406 5.71608 15.5316 6.11787L12.8678 5.52724C12.7151 5.48707 12.6147 5.55135 12.5665 5.7201L11.7348 9.48082C10.2883 9.53707 9.04683 9.9268 8.01022 10.65C7.72897 10.3527 7.37942 10.204 6.96156 10.204C6.55977 10.204 6.21825 10.3447 5.937 10.6259C5.65575 10.9072 5.51513 11.2447 5.51513 11.6384C5.51513 11.9197 5.58946 12.1768 5.73812 12.4098C5.88678 12.6429 6.08567 12.8197 6.33477 12.9402C6.28656 13.1572 6.26245 13.3822 6.26245 13.6152C6.26245 14.7563 6.82495 15.7326 7.94995 16.5442C9.07495 17.3558 10.429 17.7616 12.012 17.7616C13.6031 17.7616 14.9611 17.3558 16.0861 16.5442C17.2111 15.7326 17.7736 14.7563 17.7736 13.6152C17.7736 13.358 17.7455 13.129 17.6892 12.9281C17.9303 12.8076 18.1232 12.6328 18.2678 12.4038C18.4125 12.1748 18.4848 11.9197 18.4848 11.6384ZM22.8 12C22.8 13.4625 22.5147 14.8607 21.9441 16.1947C21.3736 17.5286 20.6062 18.6777 19.6419 19.642C18.6776 20.6063 17.5285 21.3737 16.1946 21.9442C14.8607 22.5147 13.4625 22.8 12 22.8C10.5375 22.8 9.13924 22.5147 7.80531 21.9442C6.47138 21.3737 5.32227 20.6063 4.35799 19.642C3.3937 18.6777 2.62629 17.5286 2.05575 16.1947C1.48522 14.8607 1.19995 13.4625 1.19995 12C1.19995 10.5375 1.48522 9.1393 2.05575 7.80537C2.62629 6.47144 3.3937 5.32233 4.35799 4.35805C5.32227 3.39376 6.47138 2.62635 7.80531 2.05582C9.13924 1.48528 10.5375 1.20001 12 1.20001C13.4625 1.20001 14.8607 1.48528 16.1946 2.05582C17.5285 2.62635 18.6776 3.39376 19.6419 4.35805C20.6062 5.32233 21.3736 6.47144 21.9441 7.80537C22.5147 9.1393 22.8 10.5375 22.8 12Z" fill="#ADADAD"/>
</svg>
