<svg width="24" height="24" viewBox="0 0 24 24" fill="none" xmlns="http://www.w3.org/2000/svg">
<path d="M12 1.20001C6.03818 1.20001 1.19995 6.03824 1.19995 12C1.19995 17.9618 6.03818 22.8 12 22.8C17.9617 22.8 22.8 17.9618 22.8 12C22.8 6.03824 17.9617 1.20001 12 1.20001ZM16.3853 17.0908C16.2024 17.0908 16.0891 17.0342 15.9193 16.934C13.2019 15.2966 10.0403 15.2269 6.91785 15.8671C6.74802 15.9107 6.52592 15.9803 6.39963 15.9803C5.97721 15.9803 5.71156 15.645 5.71156 15.2923C5.71156 14.8437 5.97721 14.6303 6.30382 14.5607C9.87043 13.7724 13.5154 13.8421 16.6248 15.7016C16.8904 15.8715 17.0472 16.0239 17.0472 16.4202C17.0472 16.8165 16.738 17.0908 16.3853 17.0908ZM17.5567 14.234C17.3303 14.234 17.1779 14.1339 17.0211 14.0511C14.2993 12.4399 10.2406 11.791 6.63043 12.7708C6.4214 12.8274 6.30818 12.884 6.11221 12.884C5.64624 12.884 5.26737 12.5052 5.26737 12.0392C5.26737 11.5732 5.49382 11.264 5.94237 11.1378C7.15302 10.7981 8.38979 10.5455 10.2014 10.5455C13.0277 10.5455 15.7582 11.2466 17.9095 12.5269C18.2622 12.736 18.4016 13.006 18.4016 13.3849C18.3972 13.8552 18.0314 14.234 17.5567 14.234ZM18.9067 10.9157C18.6803 10.9157 18.5409 10.859 18.345 10.7458C15.2443 8.89501 9.7006 8.45082 6.11221 9.45243C5.95544 9.49598 5.75947 9.56566 5.55044 9.56566C4.9756 9.56566 4.53576 9.11711 4.53576 8.53792C4.53576 7.94566 4.90156 7.61033 5.2935 7.49711C6.8264 7.04856 8.54221 6.83517 10.4104 6.83517C13.5895 6.83517 16.9209 7.49711 19.3553 8.91679C19.695 9.11275 19.917 9.38275 19.917 9.90098C19.917 10.4932 19.438 10.9157 18.9067 10.9157Z" fill="#ADADAD"/>
</svg>
