<svg width="24" height="24" viewBox="0 0 24 24" fill="none" xmlns="http://www.w3.org/2000/svg">
<circle cx="12" cy="12" r="10.8" fill="#ADADAD"/>
<path d="M14.8713 11.5617C14.8198 11.537 14.7672 11.513 14.7139 11.4904C14.6215 9.78366 13.689 8.80642 12.1231 8.79654C11.2197 8.79054 10.4108 9.15899 9.90679 9.92377L10.7679 10.5146C11.1261 9.97106 11.6883 9.8553 12.1023 9.8553H12.1164C12.632 9.85848 13.0213 10.0085 13.273 10.3007C13.4561 10.5139 13.5789 10.8078 13.6396 11.1791C13.1823 11.1015 12.6882 11.0775 12.1595 11.1078C10.6709 11.1936 9.71374 12.0618 9.77797 13.268C9.81044 13.8804 10.1154 14.4066 10.6363 14.7507C11.0767 15.0415 11.6442 15.1837 12.2336 15.1512C13.0125 15.1089 13.6231 14.8117 14.0494 14.2686C14.373 13.856 14.5777 13.3213 14.6681 12.648C15.039 12.8717 15.3139 13.1664 15.466 13.5207C15.724 14.1228 15.7392 15.1124 14.9317 15.9192C14.2244 16.6261 13.3739 16.9317 12.0889 16.9412C10.6631 16.9307 9.58492 16.4733 8.88402 15.5821C8.22759 14.7478 7.88843 13.5426 7.87572 12C7.88843 10.4574 8.22759 9.25216 8.88402 8.41786C9.58492 7.52673 10.6631 7.06935 12.0889 7.05876C13.5246 7.06935 14.6215 7.52885 15.3495 8.42421C15.7064 8.86324 15.9753 9.41556 16.1528 10.0593L17.1618 9.79001C16.9469 8.99771 16.6088 8.31481 16.1482 7.74837C15.2151 6.60032 13.8507 6.01235 12.0924 6H12.0854C10.3306 6.01235 8.98108 6.60279 8.07477 7.75507C7.26799 8.78031 6.8519 10.2072 6.83813 11.9958V12.0042C6.8519 13.7928 7.26799 15.2197 8.07477 16.2449C8.98108 17.3972 10.3306 17.988 12.0854 18H12.0924C13.6523 17.9891 14.752 17.5807 15.658 16.6755C16.8431 15.4914 16.8075 14.0074 16.4168 13.0962C16.1366 12.4429 15.6022 11.9121 14.8713 11.5617ZM12.1778 14.0942C11.5256 14.1309 10.8477 13.838 10.8141 13.2109C10.7894 12.7457 11.1452 12.2266 12.2181 12.1648C12.3409 12.1578 12.4616 12.1542 12.5798 12.1542C12.9694 12.1542 13.334 12.192 13.6654 12.2647C13.5419 13.8084 12.817 14.0589 12.1778 14.0942Z" fill="white"/>
</svg>
