<svg width="24" height="24" viewBox="0 0 24 24" fill="none" xmlns="http://www.w3.org/2000/svg">
<path d="M12 1.20001C6.03531 1.20001 1.19995 6.03537 1.19995 12C1.19995 17.9647 6.03531 22.8 12 22.8C17.9646 22.8 22.8 17.9647 22.8 12C22.8 6.03534 17.9646 1.20001 12 1.20001Z" fill="#ADADAD"/>
<g clip-path="url(#clip0_529_1978)">
<path d="M14.0707 10.6652C14.7089 11.1239 15.4752 11.3702 16.2611 11.3692V9.79118C16.1063 9.79118 15.9523 9.77518 15.8011 9.74278V10.9844C15.0151 10.9856 14.2486 10.7394 13.6103 10.2808V13.5C13.6103 15.1104 12.3095 16.4156 10.7051 16.4156C10.1289 16.4164 9.56558 16.2447 9.08789 15.9224C9.35768 16.2004 9.68057 16.4213 10.0374 16.572C10.3942 16.7228 10.7777 16.8003 11.1651 16.8C12.7695 16.8 14.0707 15.4948 14.0707 13.884V10.6656V10.6652ZM14.6379 9.07398C14.3132 8.71847 14.1139 8.26632 14.0707 7.78678V7.58398H13.6347C13.6882 7.88877 13.8051 8.1789 13.978 8.43559C14.1508 8.69227 14.3756 8.90977 14.6379 9.07398ZM10.1027 14.6872C9.92627 14.455 9.83099 14.1712 9.83149 13.8796C9.83121 13.6703 9.88028 13.4639 9.97473 13.2771C10.0692 13.0903 10.2063 12.9285 10.375 12.8046C10.5438 12.6808 10.7393 12.5985 10.9458 12.5644C11.1523 12.5303 11.3639 12.5454 11.5635 12.6084V10.996C11.4112 10.975 11.2576 10.966 11.1039 10.9692V12.2244C10.9043 12.1614 10.6927 12.1463 10.4862 12.1804C10.2797 12.2145 10.0842 12.2968 9.91544 12.4206C9.74671 12.5445 9.60957 12.7063 9.51513 12.8931C9.42068 13.0799 9.37161 13.2863 9.37189 13.4956C9.37189 14.0164 9.66909 14.4676 10.1027 14.6872Z" fill="#CCCBCB"/>
<path d="M13.6103 10.2812C14.2487 10.7398 15.0151 10.9859 15.8011 10.9848V9.74318C15.3531 9.64688 14.9464 9.4129 14.6379 9.07398C14.3757 8.90975 14.1508 8.69225 13.978 8.43557C13.8052 8.17889 13.6882 7.88876 13.6347 7.58398H12.4895V13.884C12.489 14.2363 12.3489 14.5741 12.0998 14.8233C11.8507 15.0725 11.5131 15.2128 11.1607 15.2136C10.9557 15.2136 10.7534 15.1661 10.5698 15.0748C10.3862 14.9835 10.2263 14.8508 10.1027 14.6872C9.88253 14.5757 9.69761 14.4052 9.56852 14.1948C9.43943 13.9845 9.37123 13.7424 9.37152 13.4956C9.37124 13.2863 9.42032 13.0799 9.51476 12.8931C9.6092 12.7063 9.74634 12.5445 9.91507 12.4206C10.0838 12.2968 10.2793 12.2145 10.4858 12.1804C10.6923 12.1463 10.9039 12.1614 11.1035 12.2244V10.9692C9.52752 11.002 8.25952 12.2944 8.25952 13.8844C8.25952 14.678 8.57552 15.3972 9.08792 15.9228C9.56561 16.2451 10.1289 16.4168 10.7051 16.416C12.3099 16.416 13.6103 15.1104 13.6103 13.5V10.2816V10.2812Z" fill="white"/>
<path d="M15.8011 9.74321V9.40721C15.3898 9.40791 14.9865 9.29241 14.6379 9.07401C14.9463 9.41305 15.353 9.64706 15.8011 9.74321ZM13.6347 7.58401C13.6243 7.52396 13.6163 7.46351 13.6107 7.40281V7.20001H12.0295V13.5C12.0291 13.8524 11.889 14.1902 11.6399 14.4394C11.3908 14.6887 11.0531 14.829 10.7007 14.8296C10.493 14.8299 10.2881 14.7811 10.1027 14.6872C10.2264 14.8508 10.3862 14.9835 10.5698 15.0748C10.7534 15.1662 10.9557 15.2137 11.1607 15.2136C11.513 15.2129 11.8506 15.0726 12.0997 14.8235C12.3487 14.5743 12.4889 14.2367 12.4895 13.8844V7.58401H13.6347ZM11.1039 10.9692V10.612C10.9719 10.5939 10.8388 10.5848 10.7055 10.5848C9.10073 10.5848 7.79993 11.89 7.79993 13.5004C7.79937 13.9789 7.91658 14.4501 8.1412 14.8726C8.36582 15.295 8.69096 15.6557 9.08793 15.9228C8.55592 15.3778 8.25866 14.646 8.25993 13.8844C8.25993 12.2948 9.52793 11.002 11.1039 10.9692Z" fill="#CCCBCB"/>
</g>
<defs>
<clipPath id="clip0_529_1978">
<rect width="9.6" height="9.6" fill="white" transform="translate(7.19995 7.20001)"/>
</clipPath>
</defs>
</svg>
